@startuml
    ' Copyright to this UML and generated images belongs to the author of the corresponding Java sources.

    ' This UML was generated by UMLDoclet (C) Copyright 2016-2025 Talsma ICT.
    ' UMLDoclet 2.2.1 is licensed under the Apache License, version 2.0
    ' and contains parts of PlantUML 1.2024.7 (ASL) Copyright 2009-2025, Arnaud Roques.

    !pragma layout smetana
    skinparam backgroundcolor transparent
    set namespaceSeparator none
    hide circle
    hide empty fields
    hide empty methods

    edu.wpi.first.apriltag --> edu.wpi.first.math.geometry
    edu.wpi.first.apriltag --> edu.wpi.first.util
    edu.wpi.first.apriltag --> org.opencv.core
    edu.wpi.first.apriltag --> edu.wpi.first.math
    edu.wpi.first.apriltag.jni --> edu.wpi.first.apriltag
    edu.wpi.first.apriltag.jni --> edu.wpi.first.math.geometry
    edu.wpi.first.apriltag.jni --> edu.wpi.first.util
    edu.wpi.first.vision --> edu.wpi.first.cscore
    edu.wpi.first.vision --> org.opencv.core
    edu.wpi.first.cameraserver --> edu.wpi.first.networktables
    edu.wpi.first.cameraserver --> edu.wpi.first.cscore
    edu.wpi.first.cameraserver --> edu.wpi.first.util
    edu.wpi.first.cscore --> edu.wpi.first.util
    edu.wpi.first.cscore --> org.opencv.core
    edu.wpi.first.cscore.raw --> edu.wpi.first.cscore
    edu.wpi.first.cscore.raw --> edu.wpi.first.util
    edu.wpi.first.epilogue --> edu.wpi.first.epilogue.logging
    edu.wpi.first.epilogue --> edu.wpi.first.units.measure
    edu.wpi.first.epilogue --> edu.wpi.first.epilogue.logging.errors
    edu.wpi.first.epilogue.logging --> edu.wpi.first.epilogue.logging.errors
    edu.wpi.first.epilogue.logging --> edu.wpi.first.util.sendable
    edu.wpi.first.epilogue.logging --> edu.wpi.first.util.struct
    edu.wpi.first.epilogue.logging --> edu.wpi.first.units
    edu.wpi.first.epilogue.logging --> edu.wpi.first.util.function
    edu.wpi.first.epilogue.logging --> edu.wpi.first.networktables
    edu.wpi.first.epilogue.logging --> edu.wpi.first.util.datalog
    edu.wpi.first.epilogue.logging.errors --> edu.wpi.first.epilogue.logging
    edu.wpi.first.hal.can --> edu.wpi.first.hal
    edu.wpi.first.hal.simulation --> edu.wpi.first.hal
    edu.wpi.first.networktables --> edu.wpi.first.util.struct
    edu.wpi.first.networktables --> edu.wpi.first.util.protobuf
    edu.wpi.first.networktables --> edu.wpi.first.util.function
    edu.wpi.first.networktables --> edu.wpi.first.util.concurrent
    edu.wpi.first.networktables --> edu.wpi.first.util.datalog
    edu.wpi.first.networktables --> edu.wpi.first.util.sendable
    edu.wpi.first.wpilibj2.command --> edu.wpi.first.util.sendable
    edu.wpi.first.wpilibj2.command --> edu.wpi.first.wpilibj
    edu.wpi.first.wpilibj2.command --> edu.wpi.first.math.trajectory
    edu.wpi.first.wpilibj2.command --> edu.wpi.first.math.controller
    edu.wpi.first.wpilibj2.command --> edu.wpi.first.math.kinematics
    edu.wpi.first.wpilibj2.command --> edu.wpi.first.wpilibj.event
    edu.wpi.first.wpilibj2.command --> edu.wpi.first.units.measure
    edu.wpi.first.wpilibj2.command --> edu.wpi.first.util.function
    edu.wpi.first.wpilibj2.command.sysid --> edu.wpi.first.wpilibj.sysid
    edu.wpi.first.wpilibj2.command.sysid --> edu.wpi.first.units.measure
    edu.wpi.first.wpilibj2.command.sysid --> edu.wpi.first.wpilibj2.command
    edu.wpi.first.wpilibj2.command.button --> edu.wpi.first.wpilibj.event
    edu.wpi.first.wpilibj2.command.button --> edu.wpi.first.wpilibj2.command
    edu.wpi.first.wpilibj2.command.button --> edu.wpi.first.math.filter
    edu.wpi.first.wpilibj2.command.button --> edu.wpi.first.networktables
    edu.wpi.first.wpilibj2.command.button --> edu.wpi.first.wpilibj
    edu.wpi.first.wpilibj --> edu.wpi.first.util.sendable
    edu.wpi.first.wpilibj --> edu.wpi.first.hal
    edu.wpi.first.wpilibj --> edu.wpi.first.units.measure
    edu.wpi.first.wpilibj --> edu.wpi.first.math.geometry
    edu.wpi.first.wpilibj --> edu.wpi.first.wpilibj.motorcontrol
    edu.wpi.first.wpilibj --> edu.wpi.first.networktables
    edu.wpi.first.wpilibj --> edu.wpi.first.wpilibj.util
    edu.wpi.first.wpilibj --> edu.wpi.first.hal.util
    edu.wpi.first.wpilibj --> edu.wpi.first.hal.can
    edu.wpi.first.wpilibj --> edu.wpi.first.wpilibj.event
    edu.wpi.first.wpilibj --> edu.wpi.first.util.datalog
    edu.wpi.first.wpilibj --> edu.wpi.first.util
    edu.wpi.first.wpilibj.event --> edu.wpi.first.networktables
    edu.wpi.first.wpilibj.event --> edu.wpi.first.math.filter
    edu.wpi.first.wpilibj.motorcontrol --> edu.wpi.first.units.measure
    edu.wpi.first.wpilibj.motorcontrol --> edu.wpi.first.wpilibj
    edu.wpi.first.wpilibj.motorcontrol --> edu.wpi.first.util.sendable
    edu.wpi.first.wpilibj.shuffleboard --> edu.wpi.first.networktables
    edu.wpi.first.wpilibj.shuffleboard --> edu.wpi.first.util.sendable
    edu.wpi.first.wpilibj.shuffleboard --> edu.wpi.first.cscore
    edu.wpi.first.wpilibj.shuffleboard --> edu.wpi.first.util.function
    edu.wpi.first.wpilibj.shuffleboard --> edu.wpi.first.wpilibj.smartdashboard
    edu.wpi.first.wpilibj.sysid --> edu.wpi.first.units.measure
    edu.wpi.first.wpilibj.sysid --> edu.wpi.first.util.datalog
    edu.wpi.first.wpilibj.drive --> edu.wpi.first.util.sendable
    edu.wpi.first.wpilibj.drive --> edu.wpi.first.wpilibj.motorcontrol
    edu.wpi.first.wpilibj.drive --> edu.wpi.first.math.geometry
    edu.wpi.first.wpilibj.drive --> edu.wpi.first.wpilibj
    edu.wpi.first.wpilibj.simulation --> edu.wpi.first.hal
    edu.wpi.first.wpilibj.simulation --> edu.wpi.first.wpilibj
    edu.wpi.first.wpilibj.simulation --> edu.wpi.first.hal.simulation
    edu.wpi.first.wpilibj.simulation --> edu.wpi.first.math.system.plant
    edu.wpi.first.wpilibj.simulation --> edu.wpi.first.math.system
    edu.wpi.first.wpilibj.simulation --> edu.wpi.first.units.measure
    edu.wpi.first.wpilibj.simulation --> edu.wpi.first.math
    edu.wpi.first.wpilibj.simulation --> edu.wpi.first.math.geometry
    edu.wpi.first.wpilibj.simulation --> edu.wpi.first.wpilibj.motorcontrol
    edu.wpi.first.wpilibj.simulation --> edu.wpi.first.networktables
    edu.wpi.first.wpilibj.livewindow --> edu.wpi.first.networktables
    edu.wpi.first.wpilibj.livewindow --> edu.wpi.first.util.sendable
    edu.wpi.first.wpilibj.counter --> edu.wpi.first.util.sendable
    edu.wpi.first.wpilibj.counter --> edu.wpi.first.wpilibj
    edu.wpi.first.wpilibj.smartdashboard --> edu.wpi.first.networktables
    edu.wpi.first.wpilibj.smartdashboard --> edu.wpi.first.math.geometry
    edu.wpi.first.wpilibj.smartdashboard --> edu.wpi.first.util.sendable
    edu.wpi.first.wpilibj.smartdashboard --> edu.wpi.first.wpilibj.util
    edu.wpi.first.wpilibj.smartdashboard --> edu.wpi.first.util.function
    edu.wpi.first.wpilibj.smartdashboard --> edu.wpi.first.math.trajectory
    edu.wpi.first.math.filter --> edu.wpi.first.util
    edu.wpi.first.math --> edu.wpi.first.math.geometry
    edu.wpi.first.math --> edu.wpi.first.util.protobuf
    edu.wpi.first.math --> edu.wpi.first.util.struct
    edu.wpi.first.math --> org.ejml.simple
    edu.wpi.first.math --> edu.wpi.first.math.proto
    edu.wpi.first.math --> edu.wpi.first.math.struct
    edu.wpi.first.math.proto --> us.hebi.quickbuf
    edu.wpi.first.math.proto --> edu.wpi.first.util.protobuf
    edu.wpi.first.math.proto --> edu.wpi.first.math
    edu.wpi.first.math.spline --> org.ejml.simple
    edu.wpi.first.math.spline --> edu.wpi.first.math.geometry
    edu.wpi.first.math.spline --> edu.wpi.first.util.protobuf
    edu.wpi.first.math.spline --> edu.wpi.first.util.struct
    edu.wpi.first.math.spline --> edu.wpi.first.math.spline.proto
    edu.wpi.first.math.spline --> edu.wpi.first.math.spline.struct
    edu.wpi.first.math.spline.proto --> edu.wpi.first.util.protobuf
    edu.wpi.first.math.spline.proto --> us.hebi.quickbuf
    edu.wpi.first.math.spline.proto --> edu.wpi.first.math.proto
    edu.wpi.first.math.spline.proto --> edu.wpi.first.math.spline
    edu.wpi.first.math.spline.struct --> edu.wpi.first.util.struct
    edu.wpi.first.math.spline.struct --> edu.wpi.first.math.spline
    edu.wpi.first.math.system --> edu.wpi.first.math
    edu.wpi.first.math.system --> edu.wpi.first.util.protobuf
    edu.wpi.first.math.system --> edu.wpi.first.util.struct
    edu.wpi.first.math.system --> edu.wpi.first.math.system.proto
    edu.wpi.first.math.system --> edu.wpi.first.math.system.struct
    edu.wpi.first.math.system --> edu.wpi.first.math.controller
    edu.wpi.first.math.system --> edu.wpi.first.math.estimator
    edu.wpi.first.math.system.proto --> edu.wpi.first.util.protobuf
    edu.wpi.first.math.system.proto --> edu.wpi.first.math
    edu.wpi.first.math.system.proto --> us.hebi.quickbuf
    edu.wpi.first.math.system.proto --> edu.wpi.first.math.proto
    edu.wpi.first.math.system.proto --> edu.wpi.first.math.system
    edu.wpi.first.math.system.plant.proto --> edu.wpi.first.util.protobuf
    edu.wpi.first.math.system.plant.proto --> us.hebi.quickbuf
    edu.wpi.first.math.system.plant.proto --> edu.wpi.first.math.proto
    edu.wpi.first.math.system.plant.proto --> edu.wpi.first.math.system.plant
    edu.wpi.first.math.system.plant --> edu.wpi.first.util.protobuf
    edu.wpi.first.math.system.plant --> edu.wpi.first.util.struct
    edu.wpi.first.math.system.plant --> edu.wpi.first.math.system.plant.proto
    edu.wpi.first.math.system.plant --> edu.wpi.first.math.system.plant.struct
    edu.wpi.first.math.system.plant --> edu.wpi.first.math.system
    edu.wpi.first.math.system.plant.struct --> edu.wpi.first.util.struct
    edu.wpi.first.math.system.plant.struct --> edu.wpi.first.math.system.plant
    edu.wpi.first.math.system.struct --> edu.wpi.first.util.struct
    edu.wpi.first.math.system.struct --> edu.wpi.first.math.struct
    edu.wpi.first.math.system.struct --> edu.wpi.first.math
    edu.wpi.first.math.system.struct --> edu.wpi.first.math.system
    edu.wpi.first.math.path --> edu.wpi.first.math.geometry
    edu.wpi.first.math.path --> edu.wpi.first.math
    edu.wpi.first.math.trajectory.proto --> edu.wpi.first.util.protobuf
    edu.wpi.first.math.trajectory.proto --> us.hebi.quickbuf
    edu.wpi.first.math.trajectory.proto --> edu.wpi.first.math.proto
    edu.wpi.first.math.trajectory.proto --> edu.wpi.first.math.trajectory
    edu.wpi.first.math.trajectory --> edu.wpi.first.math.geometry
    edu.wpi.first.math.trajectory --> edu.wpi.first.math.spline
    edu.wpi.first.math.trajectory --> edu.wpi.first.util.protobuf
    edu.wpi.first.math.trajectory --> edu.wpi.first.math.trajectory.proto
    edu.wpi.first.math.trajectory --> edu.wpi.first.units.measure
    edu.wpi.first.math.trajectory --> edu.wpi.first.math.trajectory.constraint
    edu.wpi.first.math.trajectory --> edu.wpi.first.math.kinematics
    edu.wpi.first.math.trajectory.constraint --> edu.wpi.first.math.geometry
    edu.wpi.first.math.trajectory.constraint --> edu.wpi.first.math.kinematics
    edu.wpi.first.math.trajectory.constraint --> edu.wpi.first.math.controller
    edu.wpi.first.math.kinematics --> edu.wpi.first.util.protobuf
    edu.wpi.first.math.kinematics --> edu.wpi.first.util.struct
    edu.wpi.first.math.kinematics --> edu.wpi.first.math.kinematics.proto
    edu.wpi.first.math.kinematics --> edu.wpi.first.math.kinematics.struct
    edu.wpi.first.math.kinematics --> edu.wpi.first.units.measure
    edu.wpi.first.math.kinematics --> edu.wpi.first.math.geometry
    edu.wpi.first.math.kinematics --> edu.wpi.first.math.interpolation
    edu.wpi.first.math.kinematics --> org.ejml.simple
    edu.wpi.first.math.kinematics.proto --> edu.wpi.first.util.protobuf
    edu.wpi.first.math.kinematics.proto --> us.hebi.quickbuf
    edu.wpi.first.math.kinematics.proto --> edu.wpi.first.math.proto
    edu.wpi.first.math.kinematics.proto --> edu.wpi.first.math.kinematics
    edu.wpi.first.math.kinematics.struct --> edu.wpi.first.util.struct
    edu.wpi.first.math.kinematics.struct --> edu.wpi.first.math.kinematics
    edu.wpi.first.math.struct --> edu.wpi.first.util.struct
    edu.wpi.first.math.struct --> edu.wpi.first.math
    edu.wpi.first.math.controller.proto --> edu.wpi.first.util.protobuf
    edu.wpi.first.math.controller.proto --> us.hebi.quickbuf
    edu.wpi.first.math.controller.proto --> edu.wpi.first.math.proto
    edu.wpi.first.math.controller.proto --> edu.wpi.first.math.controller
    edu.wpi.first.math.controller --> edu.wpi.first.math
    edu.wpi.first.math.controller --> edu.wpi.first.math.system
    edu.wpi.first.math.controller --> edu.wpi.first.math.geometry
    edu.wpi.first.math.controller --> edu.wpi.first.math.trajectory
    edu.wpi.first.math.controller --> edu.wpi.first.util.protobuf
    edu.wpi.first.math.controller --> edu.wpi.first.util.struct
    edu.wpi.first.math.controller --> edu.wpi.first.math.controller.struct
    edu.wpi.first.math.controller --> edu.wpi.first.math.controller.proto
    edu.wpi.first.math.controller --> edu.wpi.first.math.kinematics
    edu.wpi.first.math.controller --> edu.wpi.first.util.sendable
    edu.wpi.first.math.controller.struct --> edu.wpi.first.util.struct
    edu.wpi.first.math.controller.struct --> edu.wpi.first.math.controller
    edu.wpi.first.math.estimator --> edu.wpi.first.math
    edu.wpi.first.math.estimator --> edu.wpi.first.math.kinematics
    edu.wpi.first.math.estimator --> edu.wpi.first.math.geometry
    edu.wpi.first.math.estimator --> edu.wpi.first.math.interpolation
    edu.wpi.first.math.estimator --> edu.wpi.first.math.system
    edu.wpi.first.math.geometry --> edu.wpi.first.util.protobuf
    edu.wpi.first.math.geometry --> edu.wpi.first.util.struct
    edu.wpi.first.math.geometry --> edu.wpi.first.units.measure
    edu.wpi.first.math.geometry --> edu.wpi.first.math
    edu.wpi.first.math.geometry --> edu.wpi.first.math.geometry.proto
    edu.wpi.first.math.geometry --> edu.wpi.first.math.geometry.struct
    edu.wpi.first.math.geometry --> edu.wpi.first.math.interpolation
    edu.wpi.first.math.geometry.proto --> edu.wpi.first.util.protobuf
    edu.wpi.first.math.geometry.proto --> us.hebi.quickbuf
    edu.wpi.first.math.geometry.proto --> edu.wpi.first.math.proto
    edu.wpi.first.math.geometry.proto --> edu.wpi.first.math.geometry
    edu.wpi.first.math.geometry.struct --> edu.wpi.first.util.struct
    edu.wpi.first.math.geometry.struct --> edu.wpi.first.math.geometry
    edu.wpi.first.math.numbers --> edu.wpi.first.math
    edu.wpi.first.units --> edu.wpi.first.units.measure
    edu.wpi.first.units --> edu.wpi.first.units.collections
    edu.wpi.first.units.mutable --> edu.wpi.first.units
    edu.wpi.first.units.mutable --> edu.wpi.first.units.measure
    edu.wpi.first.units.measure --> edu.wpi.first.units
    edu.wpi.first.units.measure --> edu.wpi.first.units.mutable
    edu.wpi.first.util --> edu.wpi.first.util.datalog
    edu.wpi.first.util.protobuf --> edu.wpi.first.util
    edu.wpi.first.util.protobuf --> us.hebi.quickbuf
    edu.wpi.first.util.sendable --> edu.wpi.first.util.function
    edu.wpi.first.util.struct --> edu.wpi.first.util
    edu.wpi.first.util.datalog --> edu.wpi.first.util.struct
    edu.wpi.first.util.datalog --> edu.wpi.first.util.protobuf
    edu.wpi.first.util.datalog --> edu.wpi.first.util
    edu.wpi.first.wpilibj.romi --> edu.wpi.first.hal
    edu.wpi.first.wpilibj.romi --> edu.wpi.first.wpilibj.motorcontrol
    edu.wpi.first.wpilibj.romi --> edu.wpi.first.wpilibj
    edu.wpi.first.wpilibj.xrp --> edu.wpi.first.wpilibj.motorcontrol
    edu.wpi.first.wpilibj.xrp --> edu.wpi.first.hal
    edu.wpi.first.wpilibj.xrp --> edu.wpi.first.wpilibj
    edu.wpi.first.wpilibj.xrp --> edu.wpi.first.math.geometry

    ' Package links
    class "edu.wpi.first.apriltag" [[edu/wpi/first/apriltag/package-summary.html]] { }
    class "edu.wpi.first.math.geometry" [[edu/wpi/first/math/geometry/package-summary.html]] {}
    class "edu.wpi.first.util" [[edu/wpi/first/util/package-summary.html]] {}
    class "edu.wpi.first.math" [[edu/wpi/first/math/package-summary.html]] {}
    class "edu.wpi.first.apriltag.jni" [[edu/wpi/first/apriltag/jni/package-summary.html]] {}
    class "edu.wpi.first.vision" [[edu/wpi/first/vision/package-summary.html]] {}
    class "edu.wpi.first.cscore" [[edu/wpi/first/cscore/package-summary.html]] {}
    class "edu.wpi.first.cameraserver" [[edu/wpi/first/cameraserver/package-summary.html]] {}
    class "edu.wpi.first.networktables" [[edu/wpi/first/networktables/package-summary.html]] {}
    class "edu.wpi.first.cscore.raw" [[edu/wpi/first/cscore/raw/package-summary.html]] {}
    class "edu.wpi.first.epilogue" [[edu/wpi/first/epilogue/package-summary.html]] {}
    class "edu.wpi.first.epilogue.logging" [[edu/wpi/first/epilogue/logging/package-summary.html]] {}
    class "edu.wpi.first.units.measure" [[edu/wpi/first/units/measure/package-summary.html]] {}
    class "edu.wpi.first.epilogue.logging.errors" [[edu/wpi/first/epilogue/logging/errors/package-summary.html]] {}
    class "edu.wpi.first.util.sendable" [[edu/wpi/first/util/sendable/package-summary.html]] {}
    class "edu.wpi.first.util.struct" [[edu/wpi/first/util/struct/package-summary.html]] {}
    class "edu.wpi.first.units" [[edu/wpi/first/units/package-summary.html]] {}
    class "edu.wpi.first.util.function" [[edu/wpi/first/util/function/package-summary.html]] {}
    class "edu.wpi.first.util.datalog" [[edu/wpi/first/util/datalog/package-summary.html]] {}
    class "edu.wpi.first.hal.can" [[edu/wpi/first/hal/can/package-summary.html]] {}
    class "edu.wpi.first.hal" [[edu/wpi/first/hal/package-summary.html]] {}
    class "edu.wpi.first.hal.simulation" [[edu/wpi/first/hal/simulation/package-summary.html]] {}
    class "edu.wpi.first.util.protobuf" [[edu/wpi/first/util/protobuf/package-summary.html]] {}
    class "edu.wpi.first.util.concurrent" [[edu/wpi/first/util/concurrent/package-summary.html]] {}
    class "edu.wpi.first.wpilibj2.command" [[edu/wpi/first/wpilibj2/command/package-summary.html]] {}
    class "edu.wpi.first.wpilibj" [[edu/wpi/first/wpilibj/package-summary.html]] {}
    class "edu.wpi.first.math.trajectory" [[edu/wpi/first/math/trajectory/package-summary.html]] {}
    class "edu.wpi.first.math.controller" [[edu/wpi/first/math/controller/package-summary.html]] {}
    class "edu.wpi.first.math.kinematics" [[edu/wpi/first/math/kinematics/package-summary.html]] {}
    class "edu.wpi.first.wpilibj.event" [[edu/wpi/first/wpilibj/event/package-summary.html]] {}
    class "edu.wpi.first.wpilibj2.command.sysid" [[edu/wpi/first/wpilibj2/command/sysid/package-summary.html]] {}
    class "edu.wpi.first.wpilibj.sysid" [[edu/wpi/first/wpilibj/sysid/package-summary.html]] {}
    class "edu.wpi.first.wpilibj2.command.button" [[edu/wpi/first/wpilibj2/command/button/package-summary.html]] {}
    class "edu.wpi.first.math.filter" [[edu/wpi/first/math/filter/package-summary.html]] {}
    class "edu.wpi.first.wpilibj.motorcontrol" [[edu/wpi/first/wpilibj/motorcontrol/package-summary.html]] {}
    class "edu.wpi.first.wpilibj.util" [[edu/wpi/first/wpilibj/util/package-summary.html]] {}
    class "edu.wpi.first.hal.util" [[edu/wpi/first/hal/util/package-summary.html]] {}
    class "edu.wpi.first.wpilibj.shuffleboard" [[edu/wpi/first/wpilibj/shuffleboard/package-summary.html]] {}
    class "edu.wpi.first.wpilibj.smartdashboard" [[edu/wpi/first/wpilibj/smartdashboard/package-summary.html]] {}
    class "edu.wpi.first.wpilibj.drive" [[edu/wpi/first/wpilibj/drive/package-summary.html]] {}
    class "edu.wpi.first.wpilibj.simulation" [[edu/wpi/first/wpilibj/simulation/package-summary.html]] {}
    class "edu.wpi.first.math.system.plant" [[edu/wpi/first/math/system/plant/package-summary.html]] {}
    class "edu.wpi.first.math.system" [[edu/wpi/first/math/system/package-summary.html]] {}
    class "edu.wpi.first.wpilibj.livewindow" [[edu/wpi/first/wpilibj/livewindow/package-summary.html]] {}
    class "edu.wpi.first.wpilibj.counter" [[edu/wpi/first/wpilibj/counter/package-summary.html]] {}
    class "edu.wpi.first.math.proto" [[edu/wpi/first/math/proto/package-summary.html]] {}
    class "edu.wpi.first.math.struct" [[edu/wpi/first/math/struct/package-summary.html]] {}
    class "edu.wpi.first.math.spline" [[edu/wpi/first/math/spline/package-summary.html]] {}
    class "edu.wpi.first.math.spline.proto" [[edu/wpi/first/math/spline/proto/package-summary.html]] {}
    class "edu.wpi.first.math.spline.struct" [[edu/wpi/first/math/spline/struct/package-summary.html]] {}
    class "edu.wpi.first.math.system.proto" [[edu/wpi/first/math/system/proto/package-summary.html]] {}
    class "edu.wpi.first.math.system.struct" [[edu/wpi/first/math/system/struct/package-summary.html]] {}
    class "edu.wpi.first.math.estimator" [[edu/wpi/first/math/estimator/package-summary.html]] {}
    class "edu.wpi.first.math.system.plant.proto" [[edu/wpi/first/math/system/plant/proto/package-summary.html]] {}
    class "edu.wpi.first.math.system.plant.struct" [[edu/wpi/first/math/system/plant/struct/package-summary.html]] {}
    class "edu.wpi.first.math.path" [[edu/wpi/first/math/path/package-summary.html]] {}
    class "edu.wpi.first.math.trajectory.proto" [[edu/wpi/first/math/trajectory/proto/package-summary.html]] {}
    class "edu.wpi.first.math.trajectory.constraint" [[edu/wpi/first/math/trajectory/constraint/package-summary.html]] {}
    class "edu.wpi.first.math.kinematics.proto" [[edu/wpi/first/math/kinematics/proto/package-summary.html]] {}
    class "edu.wpi.first.math.kinematics.struct" [[edu/wpi/first/math/kinematics/struct/package-summary.html]] {}
    class "edu.wpi.first.math.interpolation" [[edu/wpi/first/math/interpolation/package-summary.html]] {}
    class "edu.wpi.first.math.controller.proto" [[edu/wpi/first/math/controller/proto/package-summary.html]] {}
    class "edu.wpi.first.math.controller.struct" [[edu/wpi/first/math/controller/struct/package-summary.html]] {}
    class "edu.wpi.first.math.geometry.proto" [[edu/wpi/first/math/geometry/proto/package-summary.html]] {}
    class "edu.wpi.first.math.geometry.struct" [[edu/wpi/first/math/geometry/struct/package-summary.html]] {}
    class "edu.wpi.first.math.numbers" [[edu/wpi/first/math/numbers/package-summary.html]] {}
    class "edu.wpi.first.units.collections" [[edu/wpi/first/units/collections/package-summary.html]] {}
    class "edu.wpi.first.units.mutable" [[edu/wpi/first/units/mutable/package-summary.html]] {}
    class "edu.wpi.first.wpilibj.romi" [[edu/wpi/first/wpilibj/romi/package-summary.html]] {}
    class "edu.wpi.first.wpilibj.xrp" [[edu/wpi/first/wpilibj/xrp/package-summary.html]] {}

    <style>
        footer {
            HyperLinkColor #8
            HyperLinkUnderlineThickness 0
        }
    </style>
    footer \n[[https://github.com/talsma-ict/umldoclet UMLDoclet 2.2.1]]
    ' Generated 2025-04-18T02:14:34.423904382Z[GMT]
@enduml
