@startuml
    ' Copyright to this UML and generated images belongs to the author of the corresponding Java sources.

    ' This UML was generated by UMLDoclet (C) Copyright 2016-2025 Talsma ICT.
    ' UMLDoclet 2.2.1 is licensed under the Apache License, version 2.0
    ' and contains parts of PlantUML 1.2024.7 (ASL) Copyright 2009-2025, Arnaud Roques.

    !pragma layout smetana
    set separator ::

    package edu.wpi.first.wpilibj.motorcontrol {

        interface MotorController [[MotorController.html]] {
            {abstract} +set(double): void
            +setVoltage(double): void
            +setVoltage(Voltage): void
            {abstract} +get(): double
            {abstract} +setInverted(boolean): void
            {abstract} +getInverted(): boolean
            {abstract} +disable(): void
            {abstract} +stopMotor(): void
        }

        class NidecBrushless [[NidecBrushless.html]] {
            +NidecBrushless(int, int)
            +close(): void
            +set(double): void
            +get(): double
            +setInverted(boolean): void
            +getInverted(): boolean
            +stopMotor(): void
            +getDescription(): String
            +disable(): void
            +enable(): void
            +getChannel(): int
            +initSendable(SendableBuilder): void
        }

        class MotorControllerGroup <<deprecated>> [[MotorControllerGroup.html]] {
            +MotorControllerGroup(MotorController, MotorController...)
            +MotorControllerGroup(MotorController[])
            +close(): void
            +set(double): void
            +setVoltage(double): void
            +get(): double
            +setInverted(boolean): void
            +getInverted(): boolean
            +disable(): void
            +stopMotor(): void
            +initSendable(SendableBuilder): void
        }

        abstract class PWMMotorController [[PWMMotorController.html]] {
            #m_pwm: PWM
            #PWMMotorController(String, int)
            +close(): void
            +set(double): void
            +get(): double
            +getVoltage(): double
            +setInverted(boolean): void
            +getInverted(): boolean
            +disable(): void
            +stopMotor(): void
            +getDescription(): String
            +getPwmHandle(): int
            +getChannel(): int
            +enableDeadbandElimination(boolean): void
            +addFollower(PWMMotorController): void
            +initSendable(SendableBuilder): void
        }

        class PWMTalonSRX [[PWMTalonSRX.html]] {
            +PWMTalonSRX(int)
        }

        class Talon [[Talon.html]] {
            +Talon(int)
        }

    }

    package edu.wpi.first.wpilibj {
        abstract class MotorSafety [[../MotorSafety.html]] {
            {abstract} +stopMotor(): void
            {abstract} +getDescription(): String
        }
    }

    package edu.wpi.first.util.sendable {
        interface Sendable [[../../util/sendable/Sendable.html]] {
            {abstract} +initSendable(SendableBuilder): void
        }
    }

    package java.lang {
        interface AutoCloseable {
            {abstract} +close(): void
        }
    }

    edu.wpi.first.wpilibj::MotorSafety <|-- edu.wpi.first.wpilibj.motorcontrol::NidecBrushless
    edu.wpi.first.wpilibj.motorcontrol::MotorController <|.. edu.wpi.first.wpilibj.motorcontrol::NidecBrushless
    edu.wpi.first.util.sendable::Sendable <|.. edu.wpi.first.wpilibj.motorcontrol::NidecBrushless
    java.lang::AutoCloseable <|.. edu.wpi.first.wpilibj.motorcontrol::NidecBrushless
    edu.wpi.first.wpilibj.motorcontrol::MotorController <|.. edu.wpi.first.wpilibj.motorcontrol::MotorControllerGroup
    edu.wpi.first.util.sendable::Sendable <|.. edu.wpi.first.wpilibj.motorcontrol::MotorControllerGroup
    java.lang::AutoCloseable <|.. edu.wpi.first.wpilibj.motorcontrol::MotorControllerGroup
    edu.wpi.first.wpilibj::MotorSafety <|-- edu.wpi.first.wpilibj.motorcontrol::PWMMotorController
    edu.wpi.first.wpilibj.motorcontrol::MotorController <|.. edu.wpi.first.wpilibj.motorcontrol::PWMMotorController
    edu.wpi.first.util.sendable::Sendable <|.. edu.wpi.first.wpilibj.motorcontrol::PWMMotorController
    java.lang::AutoCloseable <|.. edu.wpi.first.wpilibj.motorcontrol::PWMMotorController

    edu.wpi.first.wpilibj.motorcontrol::PWMMotorController <|-- edu.wpi.first.wpilibj.motorcontrol::PWMTalonFX
    edu.wpi.first.wpilibj.motorcontrol::PWMMotorController <|-- edu.wpi.first.wpilibj.motorcontrol::Talon

    <style>
        footer {
            HyperLinkColor #8
            HyperLinkUnderlineThickness 0
        }
    </style>
    footer \n[[https://github.com/talsma-ict/umldoclet UMLDoclet 2.2.1]]
    ' Generated 2025-04-18T02:14:20.343657704Z[GMT]
@enduml
