@startuml
    !pragma layout smetana
    skinparam backgroundcolor transparent
    set namespaceSeparator none
    hide circle
    hide empty fields
    hide empty methods
    edu.wpi.first.apriltag --> edu.wpi.first.util
    edu.wpi.first.apriltag.jni --> edu.wpi.first.util
    edu.wpi.first.cameraserver --> edu.wpi.first.util
    edu.wpi.first.cscore --> edu.wpi.first.util
    edu.wpi.first.cscore.raw --> edu.wpi.first.util
    edu.wpi.first.epilogue.logging --> edu.wpi.first.util.sendable
    edu.wpi.first.epilogue.logging --> edu.wpi.first.util.struct
    edu.wpi.first.epilogue.logging --> edu.wpi.first.util.function
    edu.wpi.first.epilogue.logging --> edu.wpi.first.util.datalog
    edu.wpi.first.networktables --> edu.wpi.first.util.struct
    edu.wpi.first.networktables --> edu.wpi.first.util.protobuf
    edu.wpi.first.networktables --> edu.wpi.first.util.function
    edu.wpi.first.networktables --> edu.wpi.first.util.concurrent
    edu.wpi.first.networktables --> edu.wpi.first.util.datalog
    edu.wpi.first.networktables --> edu.wpi.first.util.sendable
    edu.wpi.first.wpilibj2.command --> edu.wpi.first.util.sendable
    edu.wpi.first.wpilibj2.command --> edu.wpi.first.util.function
    edu.wpi.first.wpilibj --> edu.wpi.first.util.sendable
    edu.wpi.first.wpilibj --> edu.wpi.first.util.datalog
    edu.wpi.first.wpilibj --> edu.wpi.first.util
    edu.wpi.first.wpilibj.motorcontrol --> edu.wpi.first.util.sendable
    edu.wpi.first.wpilibj.shuffleboard --> edu.wpi.first.util.sendable
    edu.wpi.first.wpilibj.shuffleboard --> edu.wpi.first.util.function
    edu.wpi.first.wpilibj.sysid --> edu.wpi.first.util.datalog
    edu.wpi.first.wpilibj.drive --> edu.wpi.first.util.sendable
    edu.wpi.first.wpilibj.livewindow --> edu.wpi.first.util.sendable
    edu.wpi.first.wpilibj.counter --> edu.wpi.first.util.sendable
    edu.wpi.first.wpilibj.smartdashboard --> edu.wpi.first.util.sendable
    edu.wpi.first.wpilibj.smartdashboard --> edu.wpi.first.util.function
    edu.wpi.first.math.filter --> edu.wpi.first.util
    edu.wpi.first.math --> edu.wpi.first.util.protobuf
    edu.wpi.first.math --> edu.wpi.first.util.struct
    edu.wpi.first.math.proto --> edu.wpi.first.util.protobuf
    edu.wpi.first.math.spline --> edu.wpi.first.util.protobuf
    edu.wpi.first.math.spline --> edu.wpi.first.util.struct
    edu.wpi.first.math.spline.proto --> edu.wpi.first.util.protobuf
    edu.wpi.first.math.spline.struct --> edu.wpi.first.util.struct
    edu.wpi.first.math.system --> edu.wpi.first.util.protobuf
    edu.wpi.first.math.system --> edu.wpi.first.util.struct
    edu.wpi.first.math.system.proto --> edu.wpi.first.util.protobuf
    edu.wpi.first.math.system.plant.proto --> edu.wpi.first.util.protobuf
    edu.wpi.first.math.system.plant --> edu.wpi.first.util.protobuf
    edu.wpi.first.math.system.plant --> edu.wpi.first.util.struct
    edu.wpi.first.math.system.plant.struct --> edu.wpi.first.util.struct
    edu.wpi.first.math.system.struct --> edu.wpi.first.util.struct
    edu.wpi.first.math.trajectory.proto --> edu.wpi.first.util.protobuf
    edu.wpi.first.math.trajectory --> edu.wpi.first.util.protobuf
    edu.wpi.first.math.kinematics --> edu.wpi.first.util.protobuf
    edu.wpi.first.math.kinematics --> edu.wpi.first.util.struct
    edu.wpi.first.math.kinematics.proto --> edu.wpi.first.util.protobuf
    edu.wpi.first.math.kinematics.struct --> edu.wpi.first.util.struct
    edu.wpi.first.math.struct --> edu.wpi.first.util.struct
    edu.wpi.first.math.controller.proto --> edu.wpi.first.util.protobuf
    edu.wpi.first.math.controller --> edu.wpi.first.util.protobuf
    edu.wpi.first.math.controller --> edu.wpi.first.util.struct
    edu.wpi.first.math.controller --> edu.wpi.first.util.sendable
    edu.wpi.first.math.controller.struct --> edu.wpi.first.util.struct
    edu.wpi.first.math.geometry --> edu.wpi.first.util.protobuf
    edu.wpi.first.math.geometry --> edu.wpi.first.util.struct
    edu.wpi.first.math.geometry.proto --> edu.wpi.first.util.protobuf
    edu.wpi.first.math.geometry.struct --> edu.wpi.first.util.struct
    edu.wpi.first.util --> edu.wpi.first.util.datalog
    edu.wpi.first.util.protobuf --> edu.wpi.first.util
    edu.wpi.first.util.protobuf --> us.hebi.quickbuf
    edu.wpi.first.util.sendable --> edu.wpi.first.util.function
    edu.wpi.first.util.struct --> edu.wpi.first.util
    edu.wpi.first.util.datalog --> edu.wpi.first.util.struct
    edu.wpi.first.util.datalog --> edu.wpi.first.util.protobuf
    edu.wpi.first.util.datalog --> edu.wpi.first.util
    class "edu.wpi.first.util" [[edu/wpi/first/util/package-summary.html]] {}
    class "edu.wpi.first.util.sendable" [[edu/wpi/first/util/sendable/package-summary.html]] {}
    class "edu.wpi.first.util.struct" [[edu/wpi/first/util/struct/package-summary.html]] {}
    class "edu.wpi.first.util.function" [[edu/wpi/first/util/function/package-summary.html]] {}
    class "edu.wpi.first.util.datalog" [[edu/wpi/first/util/datalog/package-summary.html]] {}
    class "edu.wpi.first.util.protobuf" [[edu/wpi/first/util/protobuf/package-summary.html]] {}
    class "edu.wpi.first.util.concurrent" [[edu/wpi/first/util/concurrent/package-summary.html]] {}
@enduml
