@startuml
    !pragma layout smetana
    skinparam backgroundcolor transparent
    set namespaceSeparator none
    hide circle
    hide empty fields
    hide empty methods
    edu.wpi.first.wpilibj2.command --> edu.wpi.first.util.sendable
    edu.wpi.first.wpilibj2.command --> edu.wpi.first.wpilibj
    edu.wpi.first.wpilibj2.command --> edu.wpi.first.math.trajectory
    edu.wpi.first.wpilibj2.command --> edu.wpi.first.math.controller
    edu.wpi.first.wpilibj2.command --> edu.wpi.first.math.kinematics
    edu.wpi.first.wpilibj2.command --> edu.wpi.first.wpilibj.event
    edu.wpi.first.wpilibj2.command --> edu.wpi.first.units.measure
    edu.wpi.first.wpilibj2.command --> edu.wpi.first.util.function
    edu.wpi.first.wpilibj2.command.sysid --> edu.wpi.first.wpilibj.sysid
    edu.wpi.first.wpilibj2.command.sysid --> edu.wpi.first.units.measure
    edu.wpi.first.wpilibj2.command.sysid --> edu.wpi.first.wpilibj2.command
    edu.wpi.first.wpilibj2.command.button --> edu.wpi.first.wpilibj.event
    edu.wpi.first.wpilibj2.command.button --> edu.wpi.first.wpilibj2.command
    edu.wpi.first.wpilibj2.command.button --> edu.wpi.first.math.filter
    edu.wpi.first.wpilibj2.command.button --> edu.wpi.first.networktables
    edu.wpi.first.wpilibj2.command.button --> edu.wpi.first.wpilibj
    class "edu.wpi.first.wpilibj2.command" [[edu/wpi/first/wpilibj2/command/package-summary.html]] {}
    class "edu.wpi.first.wpilibj2.command.sysid" [[edu/wpi/first/wpilibj2/command/sysid/package-summary.html]] {}
    class "edu.wpi.first.wpilibj2.command.button" [[edu/wpi/first/wpilibj2/command/button/package-summary.html]] {}
@enduml
