@startuml
    !pragma layout smetana
    skinparam backgroundcolor transparent
    set namespaceSeparator none
    hide circle
    hide empty fields
    hide empty methods
    edu.wpi.first.epilogue --> edu.wpi.first.epilogue.logging
    edu.wpi.first.epilogue --> edu.wpi.first.units.measure
    edu.wpi.first.epilogue --> edu.wpi.first.epilogue.logging.errors
    edu.wpi.first.epilogue.logging --> edu.wpi.first.epilogue.logging.errors
    edu.wpi.first.epilogue.logging --> edu.wpi.first.util.sendable
    edu.wpi.first.epilogue.logging --> edu.wpi.first.util.struct
    edu.wpi.first.epilogue.logging --> edu.wpi.first.units
    edu.wpi.first.epilogue.logging --> edu.wpi.first.util.function
    edu.wpi.first.epilogue.logging --> edu.wpi.first.networktables
    edu.wpi.first.epilogue.logging --> edu.wpi.first.util.datalog
    edu.wpi.first.epilogue.logging.errors --> edu.wpi.first.epilogue.logging
    class "edu.wpi.first.epilogue" [[edu/wpi/first/epilogue/package-summary.html]] {}
    class "edu.wpi.first.epilogue.logging" [[edu/wpi/first/epilogue/logging/package-summary.html]] {}
    class "edu.wpi.first.epilogue.logging.errors" [[edu/wpi/first/epilogue/logging/errors/package-summary.html]] {}
@enduml
